<?xml version="1.0" encoding="utf-8"?>
<!-- Generator: Adobe Illustrator 15.1.0, SVG Export Plug-In . SVG Version: 6.00 Build 0)  -->
<!DOCTYPE svg PUBLIC "-//W3C//DTD SVG 1.1//EN" "http://www.w3.org/Graphics/SVG/1.1/DTD/svg11.dtd">
<svg version="1.1" id="Layer_1" xmlns="http://www.w3.org/2000/svg" xmlns:xlink="http://www.w3.org/1999/xlink" x="0px" y="0px"
	 width="75px" height="55px" viewBox="0 0 75 55" enable-background="new 0 0 75 55" xml:space="preserve">
<g>
	<path fill="#343433" d="M2.246,43.273l8.178-4.95c1.578,2.798,3.013,5.165,6.456,5.165c3.3,0,5.38-1.291,5.38-6.312V3.029h10.043
		v34.289c0,10.402-6.097,15.137-14.993,15.137C9.276,52.455,4.613,48.295,2.246,43.273"/>
	<path fill="#343433" d="M37.756,42.197l8.178-4.734c2.152,3.515,4.95,6.098,9.899,6.098c4.161,0,6.814-2.081,6.814-4.95
		c0-3.443-2.726-4.663-7.316-6.671l-2.511-1.077c-7.246-3.084-12.052-6.958-12.052-15.136c0-7.532,5.738-13.271,14.706-13.271
		c6.385,0,10.976,2.224,14.275,8.035l-7.819,5.021c-1.723-3.084-3.587-4.304-6.456-4.304c-2.941,0-4.807,1.865-4.807,4.304
		c0,3.013,1.865,4.233,6.169,6.098l2.511,1.076c8.537,3.659,13.343,7.389,13.343,15.782c0,9.039-7.102,13.988-16.643,13.988
		C46.723,52.455,40.696,48.008,37.756,42.197"/>
</g>
</svg>
